<svg width="16" height="17" viewBox="0 0 16 17" fill="none" xmlns="http://www.w3.org/2000/svg">
<path d="M8.00356 4.03572C5.73214 4.03572 3.89999 5.86787 3.89999 8.1393C3.89999 10.4107 5.73214 12.2429 8.00356 12.2429C10.275 12.2429 12.1071 10.4107 12.1071 8.1393C12.1071 5.86787 10.275 4.03572 8.00356 4.03572ZM8.00356 10.8072C6.53571 10.8072 5.33571 9.61073 5.33571 8.1393C5.33571 6.66787 6.53214 5.47144 8.00356 5.47144C9.47499 5.47144 10.6714 6.66787 10.6714 8.1393C10.6714 9.61073 9.47142 10.8072 8.00356 10.8072V10.8072ZM13.2321 3.86787C13.2321 4.40001 12.8036 4.82501 12.275 4.82501C11.7429 4.82501 11.3178 4.39644 11.3178 3.86787C11.3178 3.33929 11.7464 2.91072 12.275 2.91072C12.8036 2.91072 13.2321 3.33929 13.2321 3.86787ZM15.95 4.8393C15.8893 3.55715 15.5964 2.42144 14.6571 1.48572C13.7214 0.550005 12.5857 0.257148 11.3036 0.192862C9.98214 0.117862 6.02142 0.117862 4.69999 0.192862C3.42142 0.253576 2.28571 0.546434 1.34642 1.48215C0.407136 2.41786 0.11785 3.55358 0.0535644 4.83572C-0.0214355 6.15715 -0.0214355 10.1179 0.0535644 11.4393C0.114279 12.7214 0.407136 13.8572 1.34642 14.7929C2.28571 15.7286 3.41785 16.0214 4.69999 16.0857C6.02142 16.1607 9.98214 16.1607 11.3036 16.0857C12.5857 16.025 13.7214 15.7322 14.6571 14.7929C15.5928 13.8572 15.8857 12.7214 15.95 11.4393C16.025 10.1179 16.025 6.16073 15.95 4.8393V4.8393ZM14.2428 12.8572C13.9643 13.5572 13.425 14.0964 12.7214 14.3786C11.6679 14.7964 9.16785 14.7 8.00356 14.7C6.83928 14.7 4.33571 14.7929 3.28571 14.3786C2.58571 14.1 2.04642 13.5607 1.76428 12.8572C1.34642 11.8036 1.44285 9.30359 1.44285 8.1393C1.44285 6.97501 1.34999 4.47144 1.76428 3.42144C2.04285 2.72144 2.58214 2.18215 3.28571 1.90001C4.33928 1.48215 6.83928 1.57858 8.00356 1.57858C9.16785 1.57858 11.6714 1.48572 12.7214 1.90001C13.4214 2.17858 13.9607 2.71786 14.2428 3.42144C14.6607 4.47501 14.5643 6.97501 14.5643 8.1393C14.5643 9.30359 14.6607 11.8072 14.2428 12.8572Z" fill="white"/>
</svg>
