<svg width="16" height="14" viewBox="0 0 16 14" fill="none" xmlns="http://www.w3.org/2000/svg">
<path d="M14.3554 3.32061C14.3655 3.46273 14.3655 3.60489 14.3655 3.74701C14.3655 8.08203 11.066 13.077 5.03555 13.077C3.17767 13.077 1.45179 12.5389 0 11.6049C0.26397 11.6354 0.517752 11.6455 0.791878 11.6455C2.32485 11.6455 3.73605 11.1278 4.86296 10.2445C3.42133 10.214 2.2132 9.26988 1.79694 7.97037C2.00001 8.00081 2.20304 8.02112 2.41626 8.02112C2.71067 8.02112 3.00511 7.9805 3.2792 7.90947C1.77666 7.60487 0.649721 6.28509 0.649721 4.69117V4.65058C1.08625 4.89424 1.59391 5.04652 2.13195 5.0668C1.24869 4.47795 0.670034 3.47289 0.670034 2.33582C0.670034 1.72669 0.832441 1.16832 1.11672 0.681002C2.73095 2.67085 5.15736 3.97033 7.87816 4.11248C7.82741 3.86883 7.79694 3.61505 7.79694 3.36123C7.79694 1.5541 9.25888 0.0820312 11.0761 0.0820312C12.0203 0.0820312 12.8731 0.47797 13.4721 1.11757C14.2132 0.975441 14.9238 0.701315 15.5533 0.325688C15.3096 1.08713 14.7919 1.72673 14.1117 2.13279C14.7716 2.06176 15.4112 1.87898 16 1.62519C15.5534 2.27491 14.995 2.85357 14.3554 3.32061V3.32061Z" fill="white"/>
</svg>
