<svg width="16" height="17" viewBox="0 0 16 17" fill="none" xmlns="http://www.w3.org/2000/svg">
<path d="M13.6036 2.46786C12.1071 0.96786 10.1143 0.14286 7.99643 0.14286C3.625 0.14286 0.0678571 3.7 0.0678571 8.07143C0.0678571 9.46786 0.432143 10.8321 1.125 12.0357L0 16.1429L4.20357 15.0393C5.36071 15.6714 6.66429 16.0036 7.99286 16.0036H7.99643C12.3643 16.0036 16 12.4464 16 8.075C16 5.95715 15.1 3.96786 13.6036 2.46786V2.46786ZM7.99643 14.6679C6.81071 14.6679 5.65 14.35 4.63929 13.75L4.4 13.6071L1.90714 14.2607L2.57143 11.8286L2.41429 11.5786C1.75357 10.5286 1.40714 9.31786 1.40714 8.07143C1.40714 4.43929 4.36429 1.48215 8 1.48215C9.76071 1.48215 11.4143 2.16786 12.6571 3.41429C13.9 4.66072 14.6643 6.31429 14.6607 8.075C14.6607 11.7107 11.6286 14.6679 7.99643 14.6679V14.6679ZM11.6107 9.73215C11.4143 9.63215 10.4393 9.15358 10.2571 9.08929C10.075 9.02143 9.94286 8.98929 9.81072 9.18929C9.67857 9.38929 9.3 9.83215 9.18214 9.96786C9.06786 10.1 8.95 10.1179 8.75357 10.0179C7.58929 9.43572 6.825 8.97858 6.05714 7.66072C5.85357 7.31072 6.26071 7.33572 6.63929 6.57858C6.70357 6.44643 6.67143 6.33215 6.62143 6.23215C6.57143 6.13215 6.175 5.15715 6.01071 4.76072C5.85 4.375 5.68571 4.42858 5.56429 4.42143C5.45 4.41429 5.31786 4.41429 5.18571 4.41429C5.05357 4.41429 4.83929 4.46429 4.65714 4.66072C4.475 4.86072 3.96429 5.33929 3.96429 6.31429C3.96429 7.28929 4.675 8.23215 4.77143 8.36429C4.87143 8.49643 6.16786 10.4964 8.15714 11.3571C9.41429 11.9 9.90714 11.9464 10.5357 11.8536C10.9179 11.7964 11.7071 11.375 11.8714 10.9107C12.0357 10.4464 12.0357 10.05 11.9857 9.96786C11.9393 9.87858 11.8071 9.82858 11.6107 9.73215Z" fill="white"/>
</svg>
